<svg width="627" height="133" viewBox="0 0 627 133" fill="none" xmlns="http://www.w3.org/2000/svg">
<path d="M198.824 77.3238C197.391 75.1535 195.592 73.5356 193.448 72.4997C191.294 71.454 188.981 70.793 186.501 70.5267C184.02 70.2603 181.708 70.1222 179.553 70.1222V68.9581C181.283 68.9581 183.121 68.7805 185.068 68.4254C187.005 68.0702 188.783 67.3994 190.394 66.4128C192.015 65.4263 193.339 64.0452 194.387 62.2497C195.434 60.4641 195.958 58.1063 195.958 55.1862C195.958 52.858 195.592 50.737 194.881 48.833C194.159 46.9191 192.993 45.2913 191.383 43.9497C189.772 42.608 187.677 41.5722 185.107 40.8224C182.538 40.0726 179.346 39.7076 175.521 39.7076H151.863V102.303H181.164C184.267 102.303 187.054 101.947 189.505 101.237C191.946 100.517 194.031 99.4614 195.731 98.0605C197.431 96.6597 198.735 94.953 199.634 92.9602C200.524 90.9576 200.978 88.6787 200.978 86.1137C200.978 82.4143 200.257 79.4744 198.824 77.2942V77.3238ZM163.801 49.9181H174.365C175.739 49.9181 177.004 50.0365 178.17 50.2733C179.336 50.5101 180.374 50.8948 181.263 51.4374C182.162 51.9701 182.844 52.7199 183.328 53.6669C183.803 54.6239 184.04 55.8472 184.04 57.3368C184.04 58.6489 183.822 59.7735 183.368 60.691C182.923 61.6183 182.261 62.3977 181.401 63.0192C180.532 63.6506 179.504 64.0945 178.308 64.3609C177.112 64.6272 175.798 64.7653 174.365 64.7653H163.801V49.9181ZM188.2 87.8303C187.637 88.9056 186.847 89.754 185.829 90.3854C184.811 91.0069 183.566 91.4508 182.103 91.7271C180.64 91.9934 179.039 92.1217 177.31 92.1217H163.791V74.9561H176.598C178.15 74.9561 179.682 75.0745 181.214 75.3113C182.735 75.5579 184.06 76.0019 185.196 76.653C186.333 77.3139 187.262 78.2117 187.973 79.3363C188.694 80.4708 189.05 81.9703 189.05 83.8151C189.05 85.4232 188.774 86.7648 188.2 87.8401V87.8303Z" fill="#0B0623"/>
<path d="M238.778 85.9559C237.998 87.9191 236.743 89.5863 235.013 90.9674C233.284 92.3387 230.981 93.0194 228.115 93.0194C226.02 93.0194 224.271 92.7037 222.868 92.0822C221.465 91.4508 220.298 90.5728 219.369 89.4383C218.45 88.3137 217.759 86.9326 217.314 85.3245C217.027 84.3183 216.84 83.243 216.731 82.0986L247.989 81.8322V78.1722C247.989 74.4136 247.485 71.1876 246.467 68.5043C245.449 65.8209 244.036 63.6012 242.208 61.8354C240.389 60.0793 238.186 58.787 235.626 57.9485C233.047 57.1099 230.24 56.6956 227.196 56.6956C223.372 56.6956 220.051 57.2776 217.245 58.4417C214.438 59.6058 212.106 61.2139 210.258 63.2658C208.4 65.3277 207.026 67.7841 206.137 70.6549C205.238 73.5158 204.793 76.6135 204.793 79.9578C204.793 83.3021 205.248 86.3998 206.176 89.2607C207.105 92.1217 208.519 94.588 210.436 96.64C212.343 98.7018 214.725 100.31 217.561 101.474C220.397 102.638 223.757 103.22 227.641 103.22C232.721 103.22 237.059 102.135 240.626 99.9547C244.214 97.7745 246.783 94.7853 248.335 90.9674L238.759 85.9559H238.778ZM219.201 70.1715C220.071 68.9482 221.188 67.9913 222.561 67.3106C223.935 66.62 225.645 66.2747 227.671 66.2747C230.359 66.2747 232.483 67.0048 234.035 68.4648C235.586 69.9347 236.367 71.8289 236.367 74.1472H217.383C217.798 72.628 218.411 71.306 219.211 70.1715H219.201Z" fill="#0B0623"/>
<path d="M286.076 68.8693C282.192 68.8693 278.881 69.3921 276.134 70.4379C273.387 71.4836 271.133 72.914 269.374 74.7292C267.615 76.5445 266.331 78.7049 265.52 81.2107C264.71 83.7165 264.315 86.4294 264.315 89.3495V102.312H252.485V57.5933H264.315V66.985C264.315 68.7114 264.058 70.0827 263.554 71.0988C263.05 72.115 262.496 73.0324 261.893 73.871L262.882 74.4925C263.9 73.1804 264.908 71.5526 265.925 69.619C266.943 67.6855 268.258 65.8209 269.869 64.0255C271.479 62.2398 273.574 60.7206 276.144 59.4677C278.713 58.2148 282.024 57.5933 286.086 57.5933V68.8594L286.076 68.8693Z" fill="#0B0623"/>
<path d="M323.431 68.8693C319.547 68.8693 316.237 69.3921 313.489 70.4379C310.742 71.4836 308.489 72.914 306.73 74.7292C304.971 76.5445 303.686 78.7049 302.876 81.2107C302.065 83.7165 301.67 86.4294 301.67 89.3495V102.312H289.841V57.5933H301.67V66.985C301.67 68.7114 301.413 70.0827 300.909 71.0988C300.405 72.115 299.852 73.0324 299.249 73.871L300.237 74.4925C301.255 73.1804 302.263 71.5526 303.281 69.619C304.299 67.6855 305.613 65.8209 307.224 64.0255C308.835 62.2398 310.93 60.7206 313.499 59.4677C316.069 58.2148 319.379 57.5933 323.441 57.5933V68.8594L323.431 68.8693Z" fill="#0B0623"/>
<path d="M367.586 101.691C367.586 109.563 363.178 120.968 344.006 120.968C340.063 120.968 335.675 120.159 332.266 119.271L334.45 109.208C337.494 109.928 341.17 110.55 344.935 110.55C353.987 110.55 355.776 105.903 355.776 101.158C355.776 96.413 357.387 91.7665 359.541 87.4751L358.197 86.6662C358.197 86.6662 353.177 102.855 341.269 102.855C332.039 102.855 327.186 95.9691 327.186 87.3864V57.6032H339.026V85.5021C339.026 90.6912 342.247 93.0096 345.923 93.0096C350.489 93.0096 355.776 89.2509 355.776 83.0851V57.5933H367.586V101.691Z" fill="#0B0623"/>
<path d="M372.349 57.7807C372.349 55.1566 372.813 52.71 373.742 50.4509C374.671 48.1819 376.134 46.1694 378.13 44.4133C380.126 42.6573 382.745 41.2861 385.967 40.2995C389.189 39.313 393.072 38.8197 397.608 38.8197C399.16 38.8197 400.85 38.9085 402.668 39.0861C404.487 39.2637 406.325 39.6188 408.183 40.1614C410.031 40.6941 411.809 41.4242 413.509 42.3515C415.209 43.2788 416.731 44.5021 418.075 46.0214C419.419 47.5406 420.476 49.3657 421.257 51.4769C422.028 53.5979 422.423 56.1431 422.423 59.1224V61.1744H410.594V59.1224C410.594 57.5736 410.327 56.1727 409.784 54.9198C409.25 53.6669 408.449 52.6114 407.412 51.7432C406.364 50.8849 405.02 50.2141 403.38 49.7307C401.739 49.2572 399.812 49.0105 397.599 49.0105C394.733 49.0105 392.42 49.3065 390.651 49.9083C388.892 50.5002 387.528 51.2697 386.58 52.1872C385.621 53.1145 384.998 54.0813 384.702 55.0974C384.406 56.1135 384.257 57.0113 384.257 57.7807C384.257 59.0928 384.603 60.1681 385.285 60.9968C385.967 61.8354 386.916 62.5161 388.111 63.0488C389.307 63.5815 390.74 64.0057 392.41 64.3017C394.08 64.5976 395.839 64.9232 397.697 65.2882C400.623 65.7617 403.637 66.3339 406.75 66.985C409.853 67.646 412.679 68.6424 415.219 69.9841C417.759 71.3257 419.834 73.1114 421.445 75.3508C423.056 77.5902 423.866 80.5497 423.866 84.2492C423.866 86.8734 423.372 89.3199 422.384 91.5791C421.395 93.8481 419.864 95.8606 417.768 97.6166C415.673 99.3726 412.985 100.744 409.704 101.73C406.424 102.717 402.48 103.21 397.875 103.21C396.383 103.21 394.693 103.121 392.815 102.944C390.938 102.766 389.04 102.411 387.123 101.869C385.216 101.336 383.348 100.606 381.52 99.6785C379.702 98.7511 378.071 97.5278 376.638 96.0086C375.205 94.4893 374.069 92.6741 373.238 90.5531C372.398 88.4419 371.983 85.8868 371.983 82.9075V80.8556H383.813V82.9075C383.813 84.4564 384.129 85.8573 384.751 87.1101C385.374 88.363 386.303 89.4383 387.528 90.3262C388.754 91.2239 390.226 91.8948 391.966 92.3387C393.695 92.7827 395.671 93.0096 397.875 93.0096C400.978 93.0096 403.459 92.7136 405.307 92.1118C407.155 91.5199 408.578 90.7603 409.566 89.8329C410.554 88.9056 411.207 87.9388 411.533 86.9227C411.859 85.9066 412.027 85.0187 412.027 84.2393C412.027 82.6313 411.582 81.3291 410.683 80.3524C409.784 79.3659 408.588 78.5668 407.096 77.9355C405.603 77.3139 403.854 76.7911 401.858 76.3669C399.852 75.9525 397.717 75.5579 395.454 75.2028C392.707 74.7292 389.94 74.1571 387.163 73.506C384.386 72.8548 381.895 71.8979 379.682 70.645C377.468 69.3921 375.699 67.7545 374.355 65.7223C373.011 63.6999 372.339 61.0462 372.339 57.761L372.349 57.7807Z" fill="#0B0623"/>
<path d="M446.556 67.794V84.4662C446.615 86.0545 446.773 87.3272 447.03 88.294C447.277 89.2608 447.692 90.1092 448.266 90.8491C448.72 91.362 449.313 91.7567 450.054 92.0428C450.796 92.3288 451.645 92.4669 452.614 92.4669H460.51V102.342H449.382C447.337 102.342 445.36 102.046 443.453 101.444C441.546 100.852 439.885 99.8462 438.462 98.4256C436.931 96.8965 435.834 95.0319 435.181 92.8517C434.529 90.6616 434.203 88.1558 434.203 85.3147V67.794H426.732V57.613H434.707V45.2716H446.526V57.613H460.5V67.794H446.556Z" fill="#0B0623"/>
<path d="M476.974 82.8286C476.974 84.6142 477.172 86.0644 477.557 87.1693C477.942 88.2742 478.456 89.1325 479.079 89.7639C479.701 90.3854 480.423 90.8195 481.233 91.0562C482.044 91.293 482.805 91.4114 483.516 91.4114C485.542 91.4114 487.311 90.9082 488.803 89.8921C490.295 88.876 491.521 87.5935 492.479 86.0447C493.438 84.4958 494.15 82.7497 494.634 80.8161C495.108 78.8825 495.355 77.0476 495.355 75.3113V57.6032H507.184V102.322H495.355V96.9556C495.355 94.2723 495.592 92.319 496.077 91.0957C496.551 89.8724 497.095 88.876 497.687 88.0967L496.788 87.2877C495.77 88.5998 494.802 90.1684 493.873 91.9836C492.944 93.7988 491.837 95.5449 490.562 97.2121C489.278 98.8794 487.667 100.3 485.72 101.464C483.783 102.628 481.342 103.21 478.417 103.21C476.984 103.21 475.492 103.043 473.94 102.717C472.388 102.391 470.956 101.701 469.641 100.665C468.327 99.6193 467.25 98.1197 466.42 96.1467C465.58 94.1736 465.164 91.5594 465.164 88.2742V57.6032H476.994V82.8187L476.974 82.8286Z" fill="#0B0623"/>
<path d="M559.848 102.322H547.93V99.8166C547.93 97.9126 548.137 96.2355 548.552 94.805C548.967 93.3746 549.362 92.1513 549.718 91.1352L548.641 90.5136C547.86 93.0194 546.882 95.101 545.686 96.7781C544.491 98.4453 543.166 99.7475 541.704 100.665C540.241 101.592 538.69 102.243 537.049 102.628C535.409 103.013 533.748 103.21 532.078 103.21C528.609 103.21 525.585 102.628 522.986 101.464C520.387 100.3 518.203 98.6919 516.444 96.6301C514.685 94.5781 513.371 92.1118 512.501 89.2509C511.632 86.39 511.207 83.2923 511.207 79.948C511.207 76.6036 511.641 73.5257 512.501 70.6944C513.371 67.863 514.685 65.4066 516.444 63.3151C518.203 61.2237 520.387 59.6058 522.986 58.4417C525.585 57.2776 528.619 56.6956 532.078 56.6956C533.748 56.6956 535.409 56.8929 537.049 57.2776C538.69 57.6624 540.241 58.3332 541.704 59.2901C543.166 60.2471 544.491 61.5394 545.686 63.177C546.882 64.8147 547.87 66.916 548.641 69.4809L549.718 68.7608C549.362 67.7447 548.967 66.5214 548.552 65.0909C548.137 63.6604 547.93 61.9636 547.93 59.9906V35.2189H559.848V102.322ZM547.841 78.1722C547.841 76.8601 547.633 75.5086 547.218 74.1077C546.803 72.7069 546.101 71.454 545.113 70.3491C544.125 69.2442 542.83 68.3366 541.219 67.6263C539.609 66.9061 537.632 66.5509 535.31 66.5509C533.758 66.5509 532.246 66.7877 530.784 67.2711C529.321 67.7447 528.017 68.5339 526.89 69.6388C525.753 70.7437 524.844 72.1446 524.152 73.8414C523.461 75.5382 523.125 77.5803 523.125 79.9677C523.125 82.3551 523.471 84.486 524.152 86.1828C524.834 87.8796 525.753 89.2706 526.89 90.3459C528.026 91.4212 529.321 92.2105 530.784 92.7136C532.246 93.2167 533.758 93.4732 535.31 93.4732C537.642 93.4732 539.609 93.0983 541.219 92.3584C542.83 91.6185 544.135 90.6912 545.113 89.5863C546.101 88.4814 546.803 87.2483 547.218 85.877C547.633 84.5057 547.841 83.164 547.841 81.852V78.1722Z" fill="#0B0623"/>
<path d="M570.788 39.7175C574.049 39.7175 576.697 42.3614 576.697 45.6169C576.697 48.8724 574.049 51.5163 570.788 51.5163C567.526 51.5163 564.878 48.8724 564.878 45.6169C564.878 42.3614 567.526 39.7175 570.788 39.7175ZM564.878 57.6032H576.707V102.322H564.878V57.6032Z" fill="#0B0623"/>
<path d="M581.53 70.6648C582.488 67.8038 583.931 65.3474 585.878 63.2856C587.815 61.2336 590.226 59.6157 593.092 58.4516C595.958 57.2875 599.328 56.7054 603.212 56.7054C607.095 56.7054 610.376 57.2875 613.242 58.4516C616.108 59.6157 618.51 61.2237 620.456 63.2856C622.393 65.3375 623.846 67.8038 624.805 70.6648C625.763 73.5257 626.238 76.6234 626.238 79.9677C626.238 83.312 625.763 86.4097 624.805 89.2706C623.846 92.1316 622.403 94.588 620.456 96.6498C618.52 98.7117 616.108 100.32 613.242 101.484C610.376 102.648 607.026 103.23 603.212 103.23C599.397 103.23 595.958 102.648 593.092 101.484C590.226 100.32 587.825 98.7117 585.878 96.6498C583.941 94.5979 582.488 92.1316 581.53 89.2706C580.571 86.4097 580.097 83.312 580.097 79.9677C580.097 76.6234 580.571 73.5257 581.53 70.6648ZM592.638 85.2851C593.112 86.9227 593.804 88.3137 594.693 89.4482C595.592 90.5827 596.739 91.4607 598.142 92.0822C599.545 92.7037 601.206 93.0194 603.113 93.0194C605.02 93.0194 606.7 92.7037 608.133 92.0822C609.566 91.4607 610.732 90.5728 611.631 89.4482C612.531 88.3137 613.203 86.9424 613.647 85.3344C614.092 83.7264 614.319 81.9407 614.319 79.9677C614.319 77.9946 614.092 76.288 613.647 74.6503C613.203 73.0127 612.531 71.6217 611.631 70.497C610.732 69.3625 609.576 68.4845 608.133 67.863C606.69 67.2415 605.03 66.9258 603.113 66.9258C601.196 66.9258 599.545 67.2415 598.142 67.863C596.739 68.4845 595.592 69.3724 594.693 70.497C593.794 71.6316 593.112 73.0028 592.638 74.6109C592.163 76.2189 591.916 78.0045 591.916 79.9776C591.916 81.9506 592.153 83.6573 592.638 85.2949V85.2851Z" fill="#0B0623"/>
<path d="M94.5152 8.88859C93.5962 14.8373 90.1571 20.1152 85.1171 23.4004C81.4211 25.8174 77.2803 26.9025 73.0408 27.9482C68.6925 29.0038 64.3245 29.8917 59.996 30.9374C59.8873 30.7993 59.7786 29.9312 59.6996 29.0531C59.6106 28.185 59.5414 27.307 59.5316 27.1787C59.4031 25.4523 59.413 23.7654 59.6897 22.0488C60.5989 16.0902 64.0478 10.8222 69.078 7.53705C72.7839 5.12006 76.9246 4.03488 81.1543 2.98917C85.5025 1.93359 89.9199 0.937198 94.2089 0C94.2583 0.167709 94.367 1.04572 94.4658 1.90399C94.5548 2.77213 94.6536 3.62054 94.6635 3.75866C94.8018 5.48507 94.7821 7.17204 94.5152 8.88859Z" fill="url(#paint0_linear_777_441)"/>
<path d="M116.731 43.7425C109.546 34.4494 97.2131 30.602 82.014 32.8809C74.1575 34.0647 65.9057 36.8368 57.8515 40.9704C50.924 28.8558 40.9724 22.0488 30.3883 22.6999C20.2391 23.3214 11.6118 30.3455 6.05789 42.4896C1.44281 52.6114 -0.652266 65.6039 0.177856 79.0601C1.43292 99.6883 9.19061 117.584 20.5158 126.058C20.753 126.255 21.0001 126.433 21.257 126.611H21.2669C26.8208 130.793 34.0646 132.984 42.4943 132.984C45.1329 132.984 47.8802 132.776 50.7362 132.342C63.8699 130.379 78.1006 123.898 90.7797 114.121C103.459 104.335 113.321 92.2203 118.549 80.017C121.287 73.6145 122.65 67.4487 122.65 61.7762C122.65 54.9494 120.684 48.8034 116.761 43.7425H116.731ZM19.7252 74.897C18.0551 77.5014 16.5728 80.1354 15.3078 82.7892C15.1102 81.2206 14.9718 79.6421 14.8829 78.0144C13.776 57.7314 21.0495 40.7435 31.1197 40.0628C36.0016 39.7274 40.6463 43.3084 44.2632 49.3756C43.4924 49.9477 42.7315 50.5199 41.9705 51.102C41.7333 51.2894 41.4863 51.4769 41.2491 51.6643C32.4834 58.5502 25.1013 66.551 19.7252 74.897ZM80.6502 101.069C61.8341 115.581 40.6364 120.011 31.8114 111.655C31.3568 111.231 30.9319 110.767 30.5366 110.254C29.9535 109.504 29.4693 108.705 29.0839 107.847C28.8269 107.285 28.6095 106.722 28.4316 106.13C25.7535 97.2516 31.4952 84.0716 42.9785 72.2629C45.7061 69.4415 48.7498 66.7187 52.0802 64.1537C71.8648 48.8823 94.2978 44.7685 102.194 54.9692C110.09 65.16 100.445 85.8079 80.6502 101.069Z" fill="url(#paint1_linear_777_441)"/>
<defs>
<linearGradient id="paint0_linear_777_441" x1="-1465.47" y1="496.653" x2="-1271.82" y2="-304.03" gradientUnits="userSpaceOnUse">
<stop stop-color="#4E3CED"/>
<stop offset="1" stop-color="#D978FF"/>
</linearGradient>
<linearGradient id="paint1_linear_777_441" x1="-6.72005" y1="131.938" x2="91.8632" y2="33.1831" gradientUnits="userSpaceOnUse">
<stop stop-color="#4E3CED"/>
<stop offset="1" stop-color="#D978FF"/>
</linearGradient>
</defs>
</svg>
